<svg width="16" height="15" viewBox="0 0 16 15" fill="none" xmlns="http://www.w3.org/2000/svg">
<path d="M13.2437 0.979126H2.45148C1.95697 0.979126 1.55518 1.38654 1.55518 1.88667V12.6592C1.55518 13.1594 1.95697 13.5668 2.45148 13.5668H13.2437C13.7382 13.5668 14.1428 13.1594 14.1428 12.6592V1.88667C14.1428 1.38654 13.7382 0.979126 13.2437 0.979126ZM5.35956 11.7685H3.4939V5.7613H5.36237V11.7685H5.35956ZM4.42673 4.94086C3.82826 4.94086 3.34498 4.45478 3.34498 3.85911C3.34498 3.26345 3.82826 2.77736 4.42673 2.77736C5.0224 2.77736 5.50848 3.26345 5.50848 3.85911C5.50848 4.45759 5.02521 4.94086 4.42673 4.94086ZM12.353 11.7685H10.4873V8.8464C10.4873 8.14958 10.4733 7.25328 9.51798 7.25328C8.54581 7.25328 8.39689 8.01191 8.39689 8.79583V11.7685H6.53123V5.7613H8.32103V6.58175H8.34632C8.59639 6.10971 9.2061 5.61239 10.1136 5.61239C12.0018 5.61239 12.353 6.8571 12.353 8.47551V11.7685Z" fill="#004D2E"/>
</svg>
